<svg width="28" height="28" viewBox="0 0 28 28" fill="none" xmlns="http://www.w3.org/2000/svg">
<path d="M14 0C21.7327 0 28 6.26856 28 14C28 21.7327 21.7327 28 14 28C6.26856 28 0 21.7321 0 14C0 6.26856 6.26856 0 14 0Z" fill="#F5AC37"/>
<path d="M14.5116 14.9886H19.8314C19.9448 14.9886 19.9983 14.9886 20.0065 14.8399C20.05 14.2987 20.05 13.7544 20.0065 13.2126C20.0065 13.1074 19.9542 13.0639 19.8402 13.0639H9.25292C9.12188 13.0639 9.0866 13.1074 9.0866 13.2302V14.7876C9.0866 14.9886 9.0866 14.9886 9.29639 14.9886H14.5116ZM19.4124 11.2438C19.4275 11.2041 19.4275 11.1607 19.4124 11.1216C19.3236 10.9282 19.2184 10.7436 19.0961 10.5704C18.9122 10.2743 18.6955 10.0015 18.4485 9.75639C18.3319 9.60834 18.1971 9.47541 18.0459 9.36264C17.2887 8.71814 16.3884 8.26202 15.4207 8.0327C14.9324 7.92307 14.4335 7.87078 13.9332 7.87519H9.23465C9.10361 7.87519 9.08597 7.92748 9.08597 8.04152V11.1474C9.08597 11.2785 9.08597 11.3138 9.25229 11.3138H19.3494C19.3494 11.3138 19.437 11.2961 19.4546 11.2438H19.4118H19.4124ZM19.4124 16.8087C19.2637 16.7923 19.1138 16.7923 18.9651 16.8087H9.26174C9.1307 16.8087 9.0866 16.8087 9.0866 16.9838V20.0205C9.0866 20.1603 9.0866 20.1956 9.26174 20.1956H13.7417C13.9559 20.212 14.1701 20.1969 14.3799 20.1521C15.0301 20.1055 15.6695 19.9644 16.2794 19.7319C16.5011 19.6551 16.7153 19.5549 16.9176 19.4345H16.9787C18.0289 18.8883 18.8819 18.0303 19.42 16.9769C19.42 16.9769 19.4811 16.8446 19.4124 16.8099V16.8087ZM7.32825 21.77V21.7177V19.679V18.9879V16.9315C7.32825 16.8175 7.32825 16.8005 7.18839 16.8005H5.28955C5.18434 16.8005 5.14087 16.8005 5.14087 16.6606V14.998H7.17075C7.28415 14.998 7.32825 14.998 7.32825 14.8494V13.2044C7.32825 13.0992 7.32825 13.0734 7.18839 13.0734H5.28955C5.18434 13.0734 5.14087 13.0734 5.14087 12.9335V11.3938C5.14087 11.2974 5.14087 11.2716 5.28073 11.2716H7.16193C7.29297 11.2716 7.32825 11.2716 7.32825 11.1052V6.38901C7.32825 6.24915 7.32825 6.21387 7.50339 6.21387H14.0655C14.5418 6.23277 15.015 6.28506 15.4831 6.37137C16.4476 6.54966 17.3743 6.89427 18.2217 7.38631C18.7837 7.71706 19.3009 8.11649 19.7614 8.57639C20.1079 8.93612 20.4204 9.32547 20.6976 9.74001C20.9729 10.1602 21.2016 10.6094 21.3812 11.0788C21.4032 11.201 21.5204 11.2835 21.6426 11.2627H23.2088C23.4098 11.2627 23.4098 11.2627 23.4186 11.4555V12.8907C23.4186 13.0305 23.3663 13.0658 23.2258 13.0658H22.0181C21.8959 13.0658 21.8606 13.0658 21.8694 13.2233C21.9173 13.7563 21.9173 14.2912 21.8694 14.8242C21.8694 14.9728 21.8694 14.9905 22.0364 14.9905H23.418C23.4791 15.0692 23.418 15.148 23.418 15.2274C23.4268 15.3288 23.4268 15.4315 23.418 15.5329V16.592C23.418 16.7406 23.3745 16.7847 23.2428 16.7847H21.5891C21.4738 16.7627 21.3616 16.8364 21.3352 16.9511C20.9414 17.9748 20.3114 18.8927 19.4975 19.6286C19.2001 19.8963 18.8876 20.1483 18.5613 20.3808C18.211 20.5824 17.8701 20.7922 17.511 20.9585C16.8502 21.2559 16.1572 21.4751 15.4459 21.6144C14.7705 21.7353 14.0857 21.7901 13.3984 21.7807H7.32573V21.7719L7.32825 21.77Z" fill="#FEFEFD"/>
</svg>
