<svg width="1801" height="25" viewBox="0 0 1801 25" fill="none" xmlns="http://www.w3.org/2000/svg">
<path d="M20.2806 12.0681V8.06806H6.28064C5.75021 8.06806 5.2415 7.85735 4.86643 7.48228C4.49135 7.1072 4.28064 6.59849 4.28064 6.06806C4.28064 4.96806 5.18064 4.06806 6.28064 4.06806H18.2806V8.06806" stroke="#202024" stroke-width="1.5" stroke-linecap="round" stroke-linejoin="round"/>
<path d="M4.28064 6.06806V18.0681C4.28064 19.1681 5.18064 20.0681 6.28064 20.0681H20.2806V16.0681" stroke="#202024" stroke-width="1.5" stroke-linecap="round" stroke-linejoin="round"/>
<path d="M18.2806 12.0681C17.7502 12.0681 17.2415 12.2788 16.8664 12.6538C16.4914 13.0289 16.2806 13.5376 16.2806 14.0681C16.2806 15.1681 17.1806 16.0681 18.2806 16.0681H22.2806V12.0681H18.2806Z" stroke="#202024" stroke-width="1.5" stroke-linecap="round" stroke-linejoin="round"/>
<g style="mix-blend-mode:luminosity">
<path d="M68.9285 2.74226L61.4332 8.30912L62.8192 5.02475L68.9285 2.74226Z" fill="#E2761B" stroke="#E2761B" stroke-linecap="round" stroke-linejoin="round"/>
<path d="M51.6253 2.74226L59.0603 8.36185L57.742 5.02475L51.6253 2.74226Z" fill="#E4761B" stroke="#E4761B" stroke-linecap="round" stroke-linejoin="round"/>
<path d="M66.2317 15.6462L64.2355 18.7046L68.5066 19.8798L69.7345 15.714L66.2317 15.6462Z" fill="#E4761B" stroke="#E4761B" stroke-linecap="round" stroke-linejoin="round"/>
<path d="M50.8343 15.714L52.0547 19.8798L56.3258 18.7046L54.3296 15.6462L50.8343 15.714Z" fill="#E4761B" stroke="#E4761B" stroke-linecap="round" stroke-linejoin="round"/>
<path d="M56.0848 10.4786L54.8946 12.279L59.1356 12.4673L58.985 7.90986L56.0848 10.4786Z" fill="#E4761B" stroke="#E4761B" stroke-linecap="round" stroke-linejoin="round"/>
<path d="M64.469 10.4786L61.5311 7.85715L61.4332 12.4673L65.6667 12.279L64.469 10.4786Z" fill="#E4761B" stroke="#E4761B" stroke-linecap="round" stroke-linejoin="round"/>
<path d="M56.3259 18.7046L58.872 17.4617L56.6724 15.7441L56.3259 18.7046Z" fill="#E4761B" stroke="#E4761B" stroke-linecap="round" stroke-linejoin="round"/>
<path d="M61.6818 17.4617L64.2354 18.7046L63.8814 15.7441L61.6818 17.4617Z" fill="#E4761B" stroke="#E4761B" stroke-linecap="round" stroke-linejoin="round"/>
<path d="M64.2355 18.7046L61.6818 17.4617L61.8852 19.1264L61.8626 19.827L64.2355 18.7046Z" fill="#D7C1B3" stroke="#D7C1B3" stroke-linecap="round" stroke-linejoin="round"/>
<path d="M56.3259 18.7046L58.6987 19.827L58.6837 19.1264L58.872 17.4617L56.3259 18.7046Z" fill="#D7C1B3" stroke="#D7C1B3" stroke-linecap="round" stroke-linejoin="round"/>
<path d="M58.7364 14.6443L56.6121 14.0191L58.1111 13.3336L58.7364 14.6443Z" fill="#233447" stroke="#233447" stroke-linecap="round" stroke-linejoin="round"/>
<path d="M61.8174 14.6443L62.4426 13.3336L63.9492 14.0191L61.8174 14.6443Z" fill="#233447" stroke="#233447" stroke-linecap="round" stroke-linejoin="round"/>
<path d="M56.3259 18.7046L56.6874 15.6462L54.3296 15.714L56.3259 18.7046Z" fill="#CD6116" stroke="#CD6116" stroke-linecap="round" stroke-linejoin="round"/>
<path d="M63.8739 15.6462L64.2355 18.7046L66.2317 15.714L63.8739 15.6462Z" fill="#CD6116" stroke="#CD6116" stroke-linecap="round" stroke-linejoin="round"/>
<path d="M65.6667 12.279L61.4332 12.4673L61.8249 14.6443L62.4501 13.3336L63.9567 14.0191L65.6667 12.279Z" fill="#CD6116" stroke="#CD6116" stroke-linecap="round" stroke-linejoin="round"/>
<path d="M56.6121 14.0191L58.1187 13.3336L58.7364 14.6443L59.1356 12.4673L54.8946 12.279L56.6121 14.0191Z" fill="#CD6116" stroke="#CD6116" stroke-linecap="round" stroke-linejoin="round"/>
<path d="M54.8946 12.279L56.6723 15.7441L56.6121 14.0191L54.8946 12.279Z" fill="#E4751F" stroke="#E4751F" stroke-linecap="round" stroke-linejoin="round"/>
<path d="M63.9567 14.0191L63.8814 15.7441L65.6667 12.279L63.9567 14.0191Z" fill="#E4751F" stroke="#E4751F" stroke-linecap="round" stroke-linejoin="round"/>
<path d="M59.1356 12.4673L58.7364 14.6443L59.2336 17.2131L59.3466 13.8308L59.1356 12.4673Z" fill="#E4751F" stroke="#E4751F" stroke-linecap="round" stroke-linejoin="round"/>
<path d="M61.4332 12.4673L61.2298 13.8232L61.3202 17.2131L61.8249 14.6443L61.4332 12.4673Z" fill="#E4751F" stroke="#E4751F" stroke-linecap="round" stroke-linejoin="round"/>
<path d="M61.8249 14.6443L61.3202 17.2131L61.6818 17.4616L63.8814 15.7441L63.9567 14.0191L61.8249 14.6443Z" fill="#F6851B" stroke="#F6851B" stroke-linecap="round" stroke-linejoin="round"/>
<path d="M56.6121 14.0191L56.6724 15.7441L58.872 17.4616L59.2335 17.2131L58.7364 14.6443L56.6121 14.0191Z" fill="#F6851B" stroke="#F6851B" stroke-linecap="round" stroke-linejoin="round"/>
<path d="M61.8626 19.827L61.8852 19.1264L61.6968 18.9607H58.8569L58.6837 19.1264L58.6987 19.827L56.3259 18.7046L57.1545 19.3826L58.8343 20.5502H61.7194L63.4068 19.3826L64.2355 18.7046L61.8626 19.827Z" fill="#C0AD9E" stroke="#C0AD9E" stroke-linecap="round" stroke-linejoin="round"/>
<path d="M61.6818 17.4617L61.3202 17.2131H59.2336L58.872 17.4617L58.6837 19.1264L58.8569 18.9607H61.6968L61.8852 19.1264L61.6818 17.4617Z" fill="#161616" stroke="#161616" stroke-linecap="round" stroke-linejoin="round"/>
<path d="M69.2448 8.6707L69.8851 5.59725L68.9285 2.74226L61.6818 8.12079L64.4689 10.4786L68.4087 11.6312L69.2825 10.6142L68.9059 10.343L69.5085 9.79311L69.0415 9.43153L69.6441 8.97202L69.2448 8.6707Z" fill="#763D16" stroke="#763D16" stroke-linecap="round" stroke-linejoin="round"/>
<path d="M50.6761 5.59725L51.3164 8.6707L50.9096 8.97202L51.5123 9.43153L51.0528 9.79311L51.6554 10.343L51.2787 10.6142L52.145 11.6312L56.0848 10.4786L58.872 8.12079L51.6253 2.74226L50.6761 5.59725Z" fill="#763D16" stroke="#763D16" stroke-linecap="round" stroke-linejoin="round"/>
<path d="M68.4087 11.6311L64.469 10.4786L65.6667 12.279L63.8814 15.7441L66.2317 15.714H69.7345L68.4087 11.6311Z" fill="#F6851B" stroke="#F6851B" stroke-linecap="round" stroke-linejoin="round"/>
<path d="M56.0848 10.4786L52.1451 11.6311L50.8343 15.714H54.3296L56.6724 15.7441L54.8946 12.279L56.0848 10.4786Z" fill="#F6851B" stroke="#F6851B" stroke-linecap="round" stroke-linejoin="round"/>
<path d="M61.4332 12.4673L61.6818 8.1208L62.8268 5.02476H57.742L58.872 8.1208L59.1356 12.4673L59.226 13.8383L59.2336 17.2131H61.3202L61.3353 13.8383L61.4332 12.4673Z" fill="#F6851B" stroke="#F6851B" stroke-linecap="round" stroke-linejoin="round"/>
</g>
<path d="M108.281 16.0681C110.49 16.0681 112.281 14.2772 112.281 12.0681C112.281 9.85892 110.49 8.06806 108.281 8.06806C106.072 8.06806 104.281 9.85892 104.281 12.0681C104.281 14.2772 106.072 16.0681 108.281 16.0681Z" stroke="#202024" stroke-width="1.5" stroke-linecap="round" stroke-linejoin="round"/>
<path d="M108.281 2.06806V4.06806" stroke="#202024" stroke-width="1.5" stroke-linecap="round" stroke-linejoin="round"/>
<path d="M108.281 20.0681V22.0681" stroke="#202024" stroke-width="1.5" stroke-linecap="round" stroke-linejoin="round"/>
<path d="M101.281 5.06806L102.781 6.56806" stroke="#202024" stroke-width="1.5" stroke-linecap="round" stroke-linejoin="round"/>
<path d="M113.781 17.5681L115.281 19.0681" stroke="#202024" stroke-width="1.5" stroke-linecap="round" stroke-linejoin="round"/>
<path d="M98.2806 12.0681H100.281" stroke="#202024" stroke-width="1.5" stroke-linecap="round" stroke-linejoin="round"/>
<path d="M116.281 12.0681H118.281" stroke="#202024" stroke-width="1.5" stroke-linecap="round" stroke-linejoin="round"/>
<path d="M101.281 19.0681L102.781 17.5681" stroke="#202024" stroke-width="1.5" stroke-linecap="round" stroke-linejoin="round"/>
<path d="M113.781 6.56806L115.281 5.06806" stroke="#202024" stroke-width="1.5" stroke-linecap="round" stroke-linejoin="round"/>
<path d="M165.281 12.8581C165.123 14.5603 164.484 16.1825 163.439 17.5348C162.393 18.8872 160.984 19.9139 159.376 20.4946C157.769 21.0753 156.029 21.1862 154.36 20.8142C152.692 20.4421 151.164 19.6026 149.955 18.3938C148.746 17.1851 147.907 15.657 147.535 13.9886C147.163 12.3201 147.273 10.5801 147.854 8.97236C148.435 7.36457 149.461 5.95543 150.814 4.90981C152.166 3.8642 153.788 3.22537 155.491 3.06806C154.494 4.41633 154.014 6.07751 154.139 7.74948C154.264 9.42144 154.984 10.9931 156.17 12.1787C157.356 13.3642 158.927 14.0848 160.599 14.2095C162.271 14.3342 163.932 13.8546 165.281 12.8581Z" stroke="#202024" stroke-width="1.5" stroke-linecap="round" stroke-linejoin="round"/>
<path d="M211.281 8.56806L204.281 15.5681L197.281 8.56806" stroke="#202024" stroke-width="1.5" stroke-linecap="round" stroke-linejoin="round"/>
<g clip-path="url(#clip0)">
<path d="M244.281 21.0681V14.0681" stroke="#202024" stroke-width="1.5" stroke-linecap="round" stroke-linejoin="round"/>
<path d="M244.281 10.0681V3.06806" stroke="#202024" stroke-width="1.5" stroke-linecap="round" stroke-linejoin="round"/>
<path d="M252.281 21.0681V12.0681" stroke="#202024" stroke-width="1.5" stroke-linecap="round" stroke-linejoin="round"/>
<path d="M252.281 8.06806V3.06806" stroke="#202024" stroke-width="1.5" stroke-linecap="round" stroke-linejoin="round"/>
<path d="M260.281 21.0681V16.0681" stroke="#202024" stroke-width="1.5" stroke-linecap="round" stroke-linejoin="round"/>
<path d="M260.281 12.0681V3.06806" stroke="#202024" stroke-width="1.5" stroke-linecap="round" stroke-linejoin="round"/>
<path d="M241.281 14.0681H247.281" stroke="#202024" stroke-width="1.5" stroke-linecap="round" stroke-linejoin="round"/>
<path d="M249.281 8.06806H255.281" stroke="#202024" stroke-width="1.5" stroke-linecap="round" stroke-linejoin="round"/>
<path d="M257.281 16.0681H263.281" stroke="#202024" stroke-width="1.5" stroke-linecap="round" stroke-linejoin="round"/>
</g>
<path d="M303.281 3.06806H309.281V9.06806" stroke="#202024" stroke-width="1.5" stroke-linecap="round" stroke-linejoin="round"/>
<path d="M297.281 21.0681H291.281V15.0681" stroke="#202024" stroke-width="1.5" stroke-linecap="round" stroke-linejoin="round"/>
<path d="M309.281 3.06806L302.281 10.0681" stroke="#202024" stroke-width="1.5" stroke-linecap="round" stroke-linejoin="round"/>
<path d="M291.281 21.0681L298.281 14.0681" stroke="#202024" stroke-width="1.5" stroke-linecap="round" stroke-linejoin="round"/>
<g clip-path="url(#clip1)">
<path d="M359.281 3.06806C358.323 3.74354 357.263 4.26017 356.141 4.59806C355.538 3.90557 354.738 3.41475 353.848 3.19199C352.957 2.96922 352.02 3.02526 351.163 3.35252C350.305 3.67977 349.569 4.26246 349.054 5.02178C348.538 5.78109 348.268 6.6804 348.281 7.59806V8.59806C346.523 8.64363 344.782 8.25388 343.212 7.46351C341.641 6.67314 340.291 5.5067 339.281 4.06806C339.281 4.06806 335.281 13.0681 344.281 17.0681C342.221 18.466 339.768 19.167 337.281 19.0681C346.281 24.0681 357.281 19.0681 357.281 7.56806C357.28 7.28952 357.253 7.01166 357.201 6.73806C358.221 5.73156 358.941 4.46077 359.281 3.06806Z" stroke="#202024" stroke-width="1.5" stroke-linecap="round" stroke-linejoin="round"/>
</g>
<path d="M401.281 2.06806H391.281C388.519 2.06806 386.281 4.30664 386.281 7.06806V17.0681C386.281 19.8295 388.519 22.0681 391.281 22.0681H401.281C404.042 22.0681 406.281 19.8295 406.281 17.0681V7.06806C406.281 4.30664 404.042 2.06806 401.281 2.06806Z" stroke="#202024" stroke-width="1.5" stroke-linecap="round" stroke-linejoin="round"/>
<path d="M400.281 11.4381C400.404 12.2703 400.262 13.1203 399.874 13.8671C399.487 14.6139 398.874 15.2195 398.122 15.5977C397.371 15.976 396.519 16.1077 395.688 15.974C394.858 15.8403 394.09 15.4481 393.495 14.8532C392.901 14.2583 392.508 13.4909 392.375 12.6603C392.241 11.8296 392.373 10.978 392.751 10.2264C393.129 9.47492 393.735 8.8618 394.482 8.4743C395.228 8.0868 396.078 7.94465 396.911 8.06806C397.76 8.19395 398.546 8.58953 399.152 9.19637C399.759 9.80321 400.155 10.5891 400.281 11.4381Z" stroke="#202024" stroke-width="1.5" stroke-linecap="round" stroke-linejoin="round"/>
<path d="M401.781 6.56806H401.791" stroke="#202024" stroke-width="1.5" stroke-linecap="round" stroke-linejoin="round"/>
<path d="M454.281 2.06806L443.281 13.0681" stroke="#202024" stroke-width="1.5" stroke-linecap="round" stroke-linejoin="round"/>
<path d="M454.281 2.06806L447.281 22.0681L443.281 13.0681L434.281 9.06806L454.281 2.06806Z" stroke="#202024" stroke-width="1.5" stroke-linecap="round" stroke-linejoin="round"/>
<path d="M498.281 2.06806H495.281C493.955 2.06806 492.683 2.59485 491.745 3.53253C490.807 4.47021 490.281 5.74198 490.281 7.06806V10.0681H487.281V14.0681H490.281V22.0681H494.281V14.0681H497.281L498.281 10.0681H494.281V7.06806C494.281 6.80285 494.386 6.54849 494.574 6.36096C494.761 6.17342 495.015 6.06806 495.281 6.06806H498.281V2.06806Z" stroke="#202024" stroke-width="1.5" stroke-linecap="round" stroke-linejoin="round"/>
<path d="M543.281 21.0681V17.0681C543.281 16.5376 543.491 16.0289 543.866 15.6538C544.241 15.2788 544.75 15.0681 545.281 15.0681H549.281" stroke="#202024" stroke-width="1.5" stroke-linecap="round" stroke-linejoin="round"/>
<path d="M535.281 4.06806V6.06806C535.496 6.68154 535.906 7.20831 536.447 7.56903C536.988 7.92975 537.631 8.10489 538.281 8.06806V8.06806C538.811 8.06806 539.32 8.27878 539.695 8.65385C540.07 9.02892 540.281 9.53763 540.281 10.0681C540.281 10.5985 540.491 11.1072 540.866 11.4823C541.241 11.8573 541.75 12.0681 542.281 12.0681C542.811 12.0681 543.32 11.8573 543.695 11.4823C544.07 11.1072 544.281 10.5985 544.281 10.0681C544.281 9.53763 544.491 9.02892 544.866 8.65385C545.241 8.27878 545.75 8.06806 546.281 8.06806H549.281" stroke="#202024" stroke-width="1.5" stroke-linecap="round" stroke-linejoin="round"/>
<path d="M531.281 11.0681H533.281C533.811 11.0681 534.32 11.2788 534.695 11.6538C535.07 12.0289 535.281 12.5376 535.281 13.0681V14.0681C535.281 14.5985 535.491 15.1072 535.866 15.4823C536.241 15.8573 536.75 16.0681 537.281 16.0681C537.811 16.0681 538.32 16.2788 538.695 16.6538C539.07 17.0289 539.281 17.5376 539.281 18.0681V22.0681" stroke="#202024" stroke-width="1.5" stroke-linecap="round" stroke-linejoin="round"/>
<path d="M540.281 22.0681C545.803 22.0681 550.281 17.5909 550.281 12.0681C550.281 6.54521 545.803 2.06806 540.281 2.06806C534.758 2.06806 530.281 6.54521 530.281 12.0681C530.281 17.5909 534.758 22.0681 540.281 22.0681Z" stroke="#202024" stroke-width="1.5" stroke-linecap="round" stroke-linejoin="round"/>
<path d="M590.781 2.06806H582.281C581.75 2.06806 581.241 2.27878 580.866 2.65385C580.491 3.02892 580.281 3.53763 580.281 4.06806V20.0681C580.281 20.5985 580.491 21.1072 580.866 21.4823C581.241 21.8573 581.75 22.0681 582.281 22.0681H594.281C594.811 22.0681 595.32 21.8573 595.695 21.4823C596.07 21.1072 596.281 20.5985 596.281 20.0681V7.56806L590.781 2.06806Z" stroke="#202024" stroke-width="1.5" stroke-linecap="round" stroke-linejoin="round"/>
<path d="M590.281 2.06806V8.06806H596.281" stroke="#202024" stroke-width="1.5" stroke-linecap="round" stroke-linejoin="round"/>
<path d="M592.281 13.0681H584.281" stroke="#202024" stroke-width="1.5" stroke-linecap="round" stroke-linejoin="round"/>
<path d="M592.281 17.0681H584.281" stroke="#202024" stroke-width="1.5" stroke-linecap="round" stroke-linejoin="round"/>
<path d="M586.281 9.06806H584.281" stroke="#202024" stroke-width="1.5" stroke-linecap="round" stroke-linejoin="round"/>
<path d="M640.204 21.7774V18.2051C640.238 17.7649 640.179 17.3225 640.029 16.9071C639.88 16.4917 639.643 16.1129 639.336 15.7959C642.234 15.4728 645.281 14.3743 645.281 9.33433C645.28 8.04556 644.785 6.80621 643.896 5.87279C644.317 4.74526 644.287 3.49896 643.813 2.39279C643.813 2.39279 642.724 2.06972 640.204 3.75895C638.088 3.18555 635.858 3.18555 633.742 3.75895C631.222 2.06972 630.133 2.39279 630.133 2.39279C629.659 3.49896 629.629 4.74526 630.05 5.87279C629.155 6.81313 628.658 8.06368 628.665 9.36203C628.665 14.3651 631.711 15.4636 634.61 15.8236C634.306 16.1374 634.072 16.5116 633.922 16.922C633.773 17.3323 633.712 17.7695 633.742 18.2051V21.7774M633.742 19.0082C629.127 20.3928 629.127 16.7005 627.281 16.2389L633.742 19.0082Z" stroke="#202024" stroke-width="1.5" stroke-linecap="round" stroke-linejoin="round"/>
<g clip-path="url(#clip2)">
<path d="M688.281 21.0681V19.0681C688.281 18.0072 687.859 16.9898 687.109 16.2396C686.359 15.4895 685.342 15.0681 684.281 15.0681H677.281C676.22 15.0681 675.202 15.4895 674.452 16.2396C673.702 16.9898 673.281 18.0072 673.281 19.0681V21.0681" stroke="#202024" stroke-width="1.5" stroke-linecap="round" stroke-linejoin="round"/>
<path d="M680.781 11.0681C682.99 11.0681 684.781 9.2772 684.781 7.06806C684.781 4.85892 682.99 3.06806 680.781 3.06806C678.572 3.06806 676.781 4.85892 676.781 7.06806C676.781 9.2772 678.572 11.0681 680.781 11.0681Z" stroke="#202024" stroke-width="1.5" stroke-linecap="round" stroke-linejoin="round"/>
<path d="M692.281 8.06806V14.0681" stroke="#202024" stroke-width="1.5" stroke-linecap="round" stroke-linejoin="round"/>
<path d="M695.281 11.0681H689.281" stroke="#202024" stroke-width="1.5" stroke-linecap="round" stroke-linejoin="round"/>
</g>
<path d="M732.281 22.0681C737.803 22.0681 742.281 17.5909 742.281 12.0681C742.281 6.54521 737.803 2.06806 732.281 2.06806C726.758 2.06806 722.281 6.54521 722.281 12.0681C722.281 17.5909 726.758 22.0681 732.281 22.0681Z" stroke="#202024" stroke-width="1.5" stroke-linecap="round" stroke-linejoin="round"/>
<path d="M732.281 16.0681V12.0681" stroke="#202024" stroke-width="1.5" stroke-linecap="round" stroke-linejoin="round"/>
<path d="M732.281 8.06806H732.291" stroke="#202024" stroke-width="1.5" stroke-linecap="round" stroke-linejoin="round"/>
<path d="M775.281 17.0681L785.281 7.06806" stroke="#202024" stroke-width="1.5" stroke-linecap="round" stroke-linejoin="round"/>
<path d="M775.281 7.06806H785.281V17.0681" stroke="#202024" stroke-width="1.5" stroke-linecap="round" stroke-linejoin="round"/>
<g clip-path="url(#clip3)">
<path d="M828.281 1.06806V23.0681" stroke="#202024" stroke-width="1.5" stroke-linecap="round" stroke-linejoin="round"/>
<path d="M833.281 5.06806H825.781C824.852 5.06806 823.962 5.43681 823.306 6.09319C822.649 6.74957 822.281 7.6398 822.281 8.56806C822.281 9.49632 822.649 10.3866 823.306 11.0429C823.962 11.6993 824.852 12.0681 825.781 12.0681H830.781C831.709 12.0681 832.599 12.4368 833.256 13.0932C833.912 13.7496 834.281 14.6398 834.281 15.5681C834.281 16.4963 833.912 17.3866 833.256 18.0429C832.599 18.6993 831.709 19.0681 830.781 19.0681H822.281" stroke="#202024" stroke-width="1.5" stroke-linecap="round" stroke-linejoin="round"/>
</g>
<path d="M883.281 4.06806H869.281C868.176 4.06806 867.281 4.96349 867.281 6.06806V20.0681C867.281 21.1726 868.176 22.0681 869.281 22.0681H883.281C884.385 22.0681 885.281 21.1726 885.281 20.0681V6.06806C885.281 4.96349 884.385 4.06806 883.281 4.06806Z" stroke="#202024" stroke-width="1.5" stroke-linecap="round" stroke-linejoin="round"/>
<path d="M880.281 2.06806V6.06806" stroke="#202024" stroke-width="1.5" stroke-linecap="round" stroke-linejoin="round"/>
<path d="M872.281 2.06806V6.06806" stroke="#202024" stroke-width="1.5" stroke-linecap="round" stroke-linejoin="round"/>
<path d="M867.281 10.0681H885.281" stroke="#202024" stroke-width="1.5" stroke-linecap="round" stroke-linejoin="round"/>
<path d="M923.281 19.0681C927.699 19.0681 931.281 15.4863 931.281 11.0681C931.281 6.64978 927.699 3.06806 923.281 3.06806C918.862 3.06806 915.281 6.64978 915.281 11.0681C915.281 15.4863 918.862 19.0681 923.281 19.0681Z" stroke="#202024" stroke-width="1.5" stroke-linecap="round" stroke-linejoin="round"/>
<path d="M933.281 21.0681L928.931 16.7181" stroke="#202024" stroke-width="1.5" stroke-linecap="round" stroke-linejoin="round"/>
<path d="M963.281 6.66806L966.881 3.06806L970.481 6.66806" stroke="#202024" stroke-width="1.5" stroke-linecap="round" stroke-linejoin="round"/>
<path d="M966.881 3.06806V21.0681" stroke="#202024" stroke-width="1.5" stroke-linecap="round" stroke-linejoin="round"/>
<path d="M974.081 17.4681L977.681 21.0681L981.281 17.4681" stroke="#202024" stroke-width="1.5" stroke-linecap="round" stroke-linejoin="round"/>
<path d="M977.681 3.06806V21.0681" stroke="#202024" stroke-width="1.5" stroke-linecap="round" stroke-linejoin="round"/>
<path d="M1026.28 6.06806L1014.28 18.0681" stroke="#202024" stroke-width="1.5" stroke-linecap="round" stroke-linejoin="round"/>
<path d="M1014.28 6.06806L1026.28 18.0681" stroke="#202024" stroke-width="1.5" stroke-linecap="round" stroke-linejoin="round"/>
<path d="M1059.28 3.06806V8.06806H1064.28" stroke="#202024" stroke-width="1.5" stroke-linecap="round" stroke-linejoin="round"/>
<path d="M1059.33 13.0681C1059.55 15.0739 1060.44 16.9471 1061.86 18.3868C1063.27 19.8265 1065.13 20.7491 1067.13 21.0066C1069.13 21.2641 1071.16 20.8414 1072.89 19.8065C1074.62 18.7716 1075.96 17.1845 1076.68 15.3C1077.4 13.4156 1077.47 11.3432 1076.87 9.41563C1076.28 7.48809 1075.05 5.81727 1073.39 4.6715C1071.72 3.52573 1069.73 2.97151 1067.71 3.09783C1065.7 3.22416 1063.79 4.0237 1062.28 5.36806L1059.28 8.06806" stroke="#202024" stroke-width="1.5" stroke-linecap="round" stroke-linejoin="round"/>
<path d="M1068.28 7.06806V12.0681L1072.28 14.0681" stroke="#202024" stroke-width="1.5" stroke-linecap="round" stroke-linejoin="round"/>
<path d="M1119.28 7.06806H1121.28C1122.61 7.06806 1123.88 7.59485 1124.82 8.53253C1125.75 9.47021 1126.28 10.742 1126.28 12.0681C1126.28 13.3941 1125.75 14.6659 1124.82 15.6036C1123.88 16.5413 1122.61 17.0681 1121.28 17.0681H1119.28M1113.28 17.0681H1111.28C1109.95 17.0681 1108.68 16.5413 1107.75 15.6036C1106.81 14.6659 1106.28 13.3941 1106.28 12.0681C1106.28 10.742 1106.81 9.47021 1107.75 8.53253C1108.68 7.59485 1109.95 7.06806 1111.28 7.06806H1113.28" stroke="#202024" stroke-width="1.5" stroke-linecap="round" stroke-linejoin="round"/>
<path d="M1112.28 12.0681H1120.28" stroke="#202024" stroke-width="1.5" stroke-linecap="round" stroke-linejoin="round"/>
<path d="M1156.28 4.06806H1172.28C1173.38 4.06806 1174.28 4.96806 1174.28 6.06806V18.0681C1174.28 19.1681 1173.38 20.0681 1172.28 20.0681H1156.28C1155.18 20.0681 1154.28 19.1681 1154.28 18.0681V6.06806C1154.28 4.96806 1155.18 4.06806 1156.28 4.06806Z" stroke="#202024" stroke-width="1.5" stroke-linecap="round" stroke-linejoin="round"/>
<path d="M1174.28 6.06806L1164.28 13.0681L1154.28 6.06806" stroke="#202024" stroke-width="1.5" stroke-linecap="round" stroke-linejoin="round"/>
<path d="M1218.28 16.0681L1222.28 12.0681L1218.28 8.06806" stroke="#202024" stroke-width="1.5" stroke-linecap="round" stroke-linejoin="round"/>
<path d="M1206.28 8.06806L1202.28 12.0681L1206.28 16.0681" stroke="#202024" stroke-width="1.5" stroke-linecap="round" stroke-linejoin="round"/>
<path d="M1214.78 4.06806L1209.78 20.0681" stroke="#202024" stroke-width="1.5" stroke-linecap="round" stroke-linejoin="round"/>
<path d="M1260.28 22.0681C1265.8 22.0681 1270.28 17.5909 1270.28 12.0681C1270.28 6.54521 1265.8 2.06806 1260.28 2.06806C1254.76 2.06806 1250.28 6.54521 1250.28 12.0681C1250.28 17.5909 1254.76 22.0681 1260.28 22.0681Z" stroke="#202024" stroke-width="1.5" stroke-linecap="round" stroke-linejoin="round"/>
<path d="M1260.28 8.06806V12.0681" stroke="#202024" stroke-width="1.5" stroke-linecap="round" stroke-linejoin="round"/>
<path d="M1260.28 16.0681H1260.29" stroke="#202024" stroke-width="1.5" stroke-linecap="round" stroke-linejoin="round"/>
<path d="M1312.28 17.4H1313.03C1313.03 16.9858 1312.69 16.65 1312.28 16.65V17.4ZM1312.28 21V21.75C1312.69 21.75 1313.03 21.4142 1313.03 21H1312.28ZM1299.28 21H1298.53C1298.53 21.4142 1298.87 21.75 1299.28 21.75V21ZM1299.28 17.4V16.65C1298.87 16.65 1298.53 16.9858 1298.53 17.4H1299.28ZM1300.8 17.4V18.15C1301.21 18.15 1301.55 17.8142 1301.55 17.4H1300.8ZM1310.7 17.4H1309.95C1309.95 17.8142 1310.29 18.15 1310.7 18.15V17.4ZM1300.8 3V2.25C1300.39 2.25 1300.05 2.58579 1300.05 3H1300.8ZM1310.7 3H1311.45C1311.45 2.58579 1311.11 2.25 1310.7 2.25V3ZM1303.05 7.05V6.3C1302.64 6.3 1302.3 6.63579 1302.3 7.05H1303.05ZM1308.45 7.05H1309.2C1309.2 6.63579 1308.86 6.3 1308.45 6.3V7.05ZM1308.45 10.65V11.4C1308.86 11.4 1309.2 11.0642 1309.2 10.65H1308.45ZM1303.05 10.65H1302.3C1302.3 11.0642 1302.64 11.4 1303.05 11.4V10.65ZM1312.95 11.55H1313.7C1313.7 11.1358 1313.36 10.8 1312.95 10.8V11.55ZM1312.95 14.25H1312.2C1312.2 14.6642 1312.54 15 1312.95 15V14.25ZM1315.65 14.25V15C1316.06 15 1316.4 14.6642 1316.4 14.25H1315.65ZM1314.82 4.25758C1314.52 3.97152 1314.04 3.98247 1313.76 4.28204C1313.47 4.58161 1313.48 5.05636 1313.78 5.34242L1314.82 4.25758ZM1311.53 17.4V21H1313.03V17.4H1311.53ZM1312.28 20.25H1299.28V21.75H1312.28V20.25ZM1300.03 21V17.4H1298.53V21H1300.03ZM1299.28 18.15H1300.8V16.65H1299.28V18.15ZM1310.7 18.15H1312.28V16.65H1310.7V18.15ZM1300.8 3.75H1310.7V2.25H1300.8V3.75ZM1309.95 3V17.4H1311.45V3H1309.95ZM1301.55 17.4V3H1300.05V17.4H1301.55ZM1303.05 7.8H1308.45V6.3H1303.05V7.8ZM1307.7 7.05V10.65H1309.2V7.05H1307.7ZM1308.45 9.9H1303.05V11.4H1308.45V9.9ZM1303.8 10.65V7.05H1302.3V10.65H1303.8ZM1310.7 12.3H1312.95V10.8H1310.7V12.3ZM1312.2 11.55V14.25H1313.7V11.55H1312.2ZM1312.95 15H1315.65V13.5H1312.95V15ZM1316.4 14.25V8.85H1314.9V14.25H1316.4ZM1316.25 7.95C1316.25 8.28137 1315.98 8.55 1315.65 8.55V10.05C1316.81 10.05 1317.75 9.1098 1317.75 7.95H1316.25ZM1315.65 8.55C1315.32 8.55 1315.05 8.28137 1315.05 7.95H1313.55C1313.55 9.1098 1314.49 10.05 1315.65 10.05V8.55ZM1315.05 7.95C1315.05 7.61863 1315.32 7.35 1315.65 7.35V5.85C1314.49 5.85 1313.55 6.7902 1313.55 7.95H1315.05ZM1315.65 7.35C1315.98 7.35 1316.25 7.61863 1316.25 7.95H1317.75C1317.75 6.7902 1316.81 5.85 1315.65 5.85V7.35ZM1317.17 6.50758L1314.82 4.25758L1313.78 5.34242L1316.14 7.59242L1317.17 6.50758Z" fill="#202024"/>
<path d="M1356.44 4.95462H1350.88C1350.57 4.95462 1350.33 5.19908 1350.33 5.50111V9.35789C1350.33 9.65955 1350.57 9.90438 1350.88 9.90438H1356.44C1356.74 9.90438 1356.99 9.65955 1356.99 9.35789V5.50111C1356.99 5.19908 1356.74 4.95462 1356.44 4.95462ZM1355.9 8.8114H1351.42V6.0476H1355.9V8.8114Z" fill="#202024"/>
<path d="M1364.19 5.94232L1364.19 5.94224L1361.86 3.73427C1361.64 3.52682 1361.3 3.53633 1361.09 3.75554C1360.88 3.97476 1360.89 4.32062 1361.11 4.5281L1362.32 5.67388C1361.56 5.95478 1361.02 6.68562 1361.02 7.5403C1361.02 8.42962 1361.61 9.18487 1362.41 9.43845V16.1997C1362.41 16.3807 1362.27 16.5279 1362.09 16.5279C1361.91 16.5279 1361.76 16.3807 1361.76 16.1997V12.764C1361.76 11.8605 1361.02 11.1249 1360.12 11.1249H1358.85V4.63948C1358.85 3.73521 1358.12 3 1357.21 3H1350.11C1349.2 3 1348.47 3.73521 1348.47 4.63948V16.8H1348.28C1347.57 16.8 1347 17.3735 1347 18.0785V20.0855C1347 20.3876 1347.24 20.632 1347.55 20.632H1359.77C1360.07 20.632 1360.32 20.3876 1360.32 20.0855V18.0785C1360.32 17.3735 1359.75 16.8 1359.04 16.8H1358.85V12.2179H1360.12C1360.42 12.2179 1360.66 12.4631 1360.66 12.764V16.1996C1360.66 16.9833 1361.3 17.6209 1362.09 17.6209C1362.87 17.6209 1363.51 16.9833 1363.51 16.1996V9.46719C1364.36 9.24568 1365 8.46565 1365 7.54026C1365 6.88665 1364.68 6.30555 1364.19 5.94232ZM1357.76 16.8H1349.56V4.63948C1349.56 4.33818 1349.81 4.09298 1350.11 4.09298H1357.21C1357.51 4.09298 1357.76 4.33818 1357.76 4.63948C1357.76 4.8486 1357.76 16.6157 1357.76 16.8ZM1359.23 18.0785V19.539H1348.09V18.0785C1348.09 17.9761 1348.18 17.893 1348.28 17.893C1348.7 17.893 1358.53 17.893 1359.04 17.893C1359.14 17.893 1359.23 17.9761 1359.23 18.0785ZM1363.01 8.43687C1362.52 8.43687 1362.11 8.03527 1362.11 7.54026C1362.11 7.04587 1362.52 6.64365 1363.01 6.64365C1363.5 6.64365 1363.91 7.04587 1363.91 7.54026C1363.91 8.03491 1363.5 8.43687 1363.01 8.43687Z" fill="#202024"/>
<path d="M1414.28 7L1405.64 15.6364L1401.1 11.0909L1394.28 17.9091" stroke="black" stroke-width="1.5" stroke-linecap="round" stroke-linejoin="round"/>
<path d="M1408.83 7H1414.28V12.4545" stroke="black" stroke-width="1.5" stroke-linecap="round" stroke-linejoin="round"/>
<path d="M1462.28 17.9091L1453.64 9.27273L1449.1 13.8182L1442.28 7" stroke="black" stroke-width="1.5" stroke-linecap="round" stroke-linejoin="round"/>
<path d="M1456.83 17.9091H1462.28V12.4545" stroke="black" stroke-width="1.5" stroke-linecap="round" stroke-linejoin="round"/>
<path d="M1497.14 8.93171C1497.76 8.32072 1497.76 7.33012 1497.14 6.71914C1496.53 6.10815 1495.54 6.10815 1494.93 6.71914C1494.32 7.33012 1494.32 8.32072 1494.93 8.93171C1495.54 9.54269 1496.53 9.54269 1497.14 8.93171Z" stroke="black" stroke-width="1.5" stroke-linecap="round" stroke-linejoin="round"/>
<path d="M1495.33 17.0178L1505.23 7.11831" stroke="black" stroke-width="1.5" stroke-linecap="round" stroke-linejoin="round"/>
<path d="M1505.63 17.417C1506.24 16.806 1506.24 15.8154 1505.63 15.2044C1505.02 14.5934 1504.03 14.5934 1503.42 15.2044C1502.81 15.8154 1502.81 16.806 1503.42 17.417C1504.03 18.028 1505.02 18.028 1505.63 17.417Z" stroke="black" stroke-width="1.5" stroke-linecap="round" stroke-linejoin="round"/>
<g clip-path="url(#clip4)">
<path d="M1544.28 15.0681C1548.15 15.0681 1551.28 11.9341 1551.28 8.06806C1551.28 4.20207 1548.15 1.06806 1544.28 1.06806C1540.41 1.06806 1537.28 4.20207 1537.28 8.06806C1537.28 11.9341 1540.41 15.0681 1544.28 15.0681Z" stroke="black" stroke-width="1.5" stroke-linecap="round" stroke-linejoin="round"/>
<path d="M1555.78 10.0081C1556.71 10.5444 1557.51 11.2877 1558.1 12.1805C1558.7 13.0733 1559.08 14.0916 1559.23 15.1566C1559.37 16.2215 1559.26 17.3046 1558.91 18.3219C1558.57 19.3392 1558 20.2634 1557.24 21.023C1556.48 21.7825 1555.55 22.3571 1554.53 22.7022C1553.52 23.0473 1552.43 23.1536 1551.37 23.0129C1550.3 22.8723 1549.29 22.4884 1548.39 21.891C1547.5 21.2936 1546.76 20.4988 1546.22 19.5681" stroke="black" stroke-width="1.5" stroke-linecap="round" stroke-linejoin="round"/>
<path d="M1543.28 6.06806H1544.28V10.0681" stroke="black" stroke-width="1.5" stroke-linecap="round" stroke-linejoin="round"/>
<path d="M1553.58 14.3681L1554.28 15.0681L1551.48 17.8681" stroke="black" stroke-width="1.5" stroke-linecap="round" stroke-linejoin="round"/>
</g>
<path d="M1589.28 12.0681H1603.28" stroke="black" stroke-width="1.5" stroke-linecap="round" stroke-linejoin="round"/>
<path d="M1596.28 5.06806L1603.28 12.0681L1596.28 19.0681" stroke="black" stroke-width="1.5" stroke-linecap="round" stroke-linejoin="round"/>
<path d="M1650.28 20.0681V10.0681" stroke="black" stroke-width="1.5" stroke-linecap="round" stroke-linejoin="round"/>
<path d="M1644.28 20.0681V4.06806" stroke="black" stroke-width="1.5" stroke-linecap="round" stroke-linejoin="round"/>
<path d="M1638.28 20.0681V14.0681" stroke="black" stroke-width="1.5" stroke-linecap="round" stroke-linejoin="round"/>
<path d="M1698.96 5.27349C1697.65 4.67718 1696.27 4.24257 1694.82 4C1694.64 4.31332 1694.44 4.73781 1694.3 5.07135C1692.76 4.84899 1691.23 4.84899 1689.72 5.07135C1689.58 4.73781 1689.36 4.31332 1689.19 4C1687.74 4.24257 1686.35 4.67718 1685.06 5.27349C1682.44 9.13439 1681.73 12.9043 1682.08 16.6237C1683.82 17.8871 1685.5 18.6553 1687.15 19.1607C1687.55 18.6148 1687.92 18.0286 1688.23 17.4121C1687.63 17.1897 1687.07 16.9168 1686.52 16.5934C1686.66 16.4924 1686.81 16.3812 1686.94 16.27C1690.23 17.776 1693.8 17.776 1697.06 16.27C1697.2 16.3812 1697.33 16.4924 1697.47 16.5934C1696.92 16.9168 1696.36 17.1897 1695.76 17.4121C1696.08 18.0286 1696.44 18.6148 1696.84 19.1607C1698.49 18.6553 1700.18 17.8871 1701.91 16.6237C1702.34 12.3181 1701.22 8.57854 1698.96 5.27349ZM1688.69 14.3294C1687.7 14.3294 1686.89 13.4299 1686.89 12.3283C1686.89 11.2266 1687.68 10.327 1688.69 10.327C1689.69 10.327 1690.51 11.2266 1690.48 12.3283C1690.48 13.4299 1689.69 14.3294 1688.69 14.3294ZM1695.33 14.3294C1694.34 14.3294 1693.53 13.4299 1693.53 12.3283C1693.53 11.2266 1694.32 10.327 1695.33 10.327C1696.33 10.327 1697.15 11.2266 1697.13 12.3283C1697.13 13.4299 1696.34 14.3294 1695.33 14.3294Z" stroke="black" stroke-width="1.5"/>
<path d="M1739.27 3H1741.46V5.19512H1739.27V3ZM1739.27 5.63415H1741.46V7.82927H1739.27V5.63415ZM1736.63 5.63415H1738.83V7.82927H1736.63V5.63415ZM1744.54 18.8049H1746.73V21H1744.54V18.8049ZM1741.9 18.8049H1744.1V21H1741.9V18.8049ZM1739.27 8.26829H1741.46V10.4634H1739.27V8.26829ZM1739.27 10.9024H1741.46V13.0976H1739.27V10.9024ZM1739.27 13.5366H1741.46V15.7317H1739.27V13.5366ZM1739.27 16.1707H1741.46V18.3659H1739.27V16.1707ZM1739.27 18.8049H1741.46V21H1739.27V18.8049ZM1736.63 18.8049H1738.83V21H1736.63V18.8049ZM1734 8.26829H1736.2V10.4634H1734V8.26829ZM1734 18.8049H1736.2V21H1734V18.8049Z" fill="#202024"/>
<g clip-path="url(#clip5)">
<path d="M1793.28 21.0681V19.0681C1793.28 18.0072 1792.86 16.9898 1792.11 16.2396C1791.36 15.4895 1790.34 15.0681 1789.28 15.0681H1781.28C1780.22 15.0681 1779.2 15.4895 1778.45 16.2396C1777.7 16.9898 1777.28 18.0072 1777.28 19.0681V21.0681" stroke="black" stroke-width="1.5" stroke-linecap="round" stroke-linejoin="round"/>
<path d="M1785.28 11.0681C1787.49 11.0681 1789.28 9.2772 1789.28 7.06806C1789.28 4.85892 1787.49 3.06806 1785.28 3.06806C1783.07 3.06806 1781.28 4.85892 1781.28 7.06806C1781.28 9.2772 1783.07 11.0681 1785.28 11.0681Z" stroke="black" stroke-width="1.5" stroke-linecap="round" stroke-linejoin="round"/>
<path d="M1799.28 21.0681V19.0681C1799.28 18.1818 1798.98 17.3208 1798.44 16.6204C1797.9 15.9199 1797.14 15.4196 1796.28 15.1981" stroke="black" stroke-width="1.5" stroke-linecap="round" stroke-linejoin="round"/>
<path d="M1792.28 3.19806C1793.14 3.41836 1793.9 3.91876 1794.45 4.62037C1794.99 5.32198 1795.29 6.18489 1795.29 7.07306C1795.29 7.96123 1794.99 8.82414 1794.45 9.52575C1793.9 10.2274 1793.14 10.7278 1792.28 10.9481" stroke="black" stroke-width="1.5" stroke-linecap="round" stroke-linejoin="round"/>
</g>
<defs>
<clipPath id="clip0">
<rect width="24" height="24" fill="white" transform="translate(240.281 0.0680618)"/>
</clipPath>
<clipPath id="clip1">
<rect width="24" height="24" fill="white" transform="translate(336.281 0.0680618)"/>
</clipPath>
<clipPath id="clip2">
<rect width="24" height="24" fill="white" transform="translate(672.281 0.0680618)"/>
</clipPath>
<clipPath id="clip3">
<rect width="24" height="24" fill="white" transform="translate(816.281 0.0680618)"/>
</clipPath>
<clipPath id="clip4">
<rect width="24" height="24" fill="white" transform="translate(1536.28 0.0680618)"/>
</clipPath>
<clipPath id="clip5">
<rect width="24" height="24" fill="white" transform="translate(1776.28 0.0680618)"/>
</clipPath>
</defs>
<path d="M12 13C12.5523 13 13 12.5523 13 12C13 11.4477 12.5523 11 12 11C11.4477 11 11 11.4477 11 12C11 12.5523 11.4477 13 12 13Z" stroke="#01AA68" stroke-width="2" stroke-linecap="round" stroke-linejoin="round"/>
<path d="M12 6C12.5523 6 13 5.55228 13 5C13 4.44772 12.5523 4 12 4C11.4477 4 11 4.44772 11 5C11 5.55228 11.4477 6 12 6Z" stroke="#01AA68" stroke-width="2" stroke-linecap="round" stroke-linejoin="round"/>
<path d="M12 20C12.5523 20 13 19.5523 13 19C13 18.4477 12.5523 18 12 18C11.4477 18 11 18.4477 11 19C11 19.5523 11.4477 20 12 20Z" stroke="#01AA68" stroke-width="2" stroke-linecap="round" stroke-linejoin="round"/>
</svg>
