<svg width="24" height="24" viewBox="0 0 24 24" fill="none" xmlns="http://www.w3.org/2000/svg">
<path d="M18.6754 5.20538C17.3715 4.60906 15.9869 4.17445 14.5416 3.93188C14.3596 4.24521 14.1575 4.6697 14.016 5.00324C12.4787 4.78088 10.9525 4.78088 9.43644 5.00324C9.29494 4.6697 9.08268 4.24521 8.91085 3.93188C7.45545 4.17445 6.07078 4.60906 4.77606 5.20538C2.15833 9.06628 1.45083 12.8362 1.80458 16.5556C3.543 17.819 5.22079 18.5872 6.86926 19.0925C7.27354 18.5467 7.6374 17.9605 7.95073 17.344C7.3544 17.1216 6.78841 16.8487 6.24262 16.5253C6.38412 16.4243 6.52563 16.3131 6.65702 16.2019C9.95193 17.7079 13.5208 17.7079 16.7752 16.2019C16.9167 16.3131 17.0481 16.4243 17.1896 16.5253C16.6438 16.8487 16.0778 17.1216 15.4815 17.344C15.7948 17.9605 16.1587 18.5467 16.5629 19.0925C18.2104 18.5872 19.8983 17.819 21.6276 16.5556C22.0622 12.25 20.9393 8.51042 18.6754 5.20538ZM8.40553 14.2613C7.41503 14.2613 6.60646 13.3618 6.60646 12.2601C6.60646 11.1585 7.39482 10.2589 8.40553 10.2589C9.40612 10.2589 10.2248 11.1585 10.2046 12.2601C10.2046 13.3618 9.40612 14.2613 8.40553 14.2613ZM15.0469 14.2613C14.0564 14.2613 13.2468 13.3618 13.2468 12.2601C13.2468 11.1585 14.0362 10.2589 15.0469 10.2589C16.0475 10.2589 16.8662 11.1585 16.846 12.2601C16.846 13.3618 16.0576 14.2613 15.0469 14.2613Z" stroke="white" stroke-width="1.5"/>
</svg>
