<svg width="21" height="20" viewBox="0 0 21 20" fill="none" xmlns="http://www.w3.org/2000/svg">
<path d="M10.5 0C16.0234 0 20.5 4.47754 20.5 10C20.5 15.5234 16.0234 20 10.5 20C4.97754 20 0.5 15.5229 0.5 10C0.5 4.47754 4.97754 0 10.5 0Z" fill="white"/>
<path d="M10.8652 10.7061H14.6651C14.7461 10.7061 14.7843 10.7061 14.7902 10.5999C14.8212 10.2134 14.8212 9.82458 14.7902 9.43758C14.7902 9.36243 14.7528 9.33138 14.6714 9.33138H7.10905C7.01545 9.33138 6.99025 9.36243 6.99025 9.45018V10.5626C6.99025 10.7061 6.99025 10.7061 7.14011 10.7061H10.8652ZM14.3658 8.03131C14.3766 8.00296 14.3766 7.97191 14.3658 7.94401C14.3024 7.80586 14.2272 7.67401 14.1399 7.55026C14.0085 7.33876 13.8537 7.1439 13.6773 6.96885C13.5941 6.8631 13.4978 6.76815 13.3898 6.6876C12.8489 6.22724 12.2058 5.90144 11.5146 5.73764C11.1658 5.65934 10.8094 5.62199 10.4521 5.62514H7.096C7.0024 5.62514 6.9898 5.66249 6.9898 5.74394V7.96246C6.9898 8.05606 6.9898 8.08126 7.1086 8.08126H14.3208C14.3208 8.08126 14.3834 8.06866 14.396 8.03131H14.3654H14.3658ZM14.3658 12.0062C14.2596 11.9945 14.1525 11.9945 14.0463 12.0062H7.11535C7.02175 12.0062 6.99025 12.0062 6.99025 12.1313V14.3003C6.99025 14.4002 6.99025 14.4254 7.11535 14.4254H10.3153C10.4683 14.4371 10.6213 14.4263 10.7712 14.3944C11.2356 14.3611 11.6923 14.2603 12.128 14.0942C12.2864 14.0393 12.4394 13.9678 12.5838 13.8818H12.6275C13.3776 13.4917 13.9869 12.8788 14.3712 12.1264C14.3712 12.1264 14.4149 12.0319 14.3658 12.0071V12.0062ZM5.73429 15.55V15.5126V14.0564V13.5628V12.094C5.73429 12.0125 5.73429 12.0004 5.63439 12.0004H4.27808C4.20293 12.0004 4.17188 12.0004 4.17188 11.9005V10.7129H5.62179C5.70279 10.7129 5.73429 10.7129 5.73429 10.6067V9.43173C5.73429 9.35658 5.73429 9.33813 5.63439 9.33813H4.27808C4.20293 9.33813 4.17188 9.33813 4.17188 9.23822V8.13841C4.17188 8.06956 4.17188 8.05111 4.27178 8.05111H5.61549C5.70909 8.05111 5.73429 8.05111 5.73429 7.93231V4.56358C5.73429 4.46368 5.73429 4.43848 5.85939 4.43848H10.5466C10.8868 4.45198 11.2248 4.48933 11.5591 4.55098C12.2481 4.67833 12.9101 4.92448 13.5153 5.27593C13.9167 5.51219 14.2862 5.79749 14.6151 6.12599C14.8626 6.38295 15.0858 6.66105 15.2838 6.95715C15.4805 7.25731 15.6438 7.57816 15.7721 7.91341C15.7878 8.00071 15.8715 8.05966 15.9588 8.04481H17.0776C17.2211 8.04481 17.2211 8.04481 17.2274 8.18251V9.20762C17.2274 9.30753 17.1901 9.33273 17.0897 9.33273H16.227C16.1397 9.33273 16.1145 9.33273 16.1208 9.44523C16.155 9.82593 16.155 10.208 16.1208 10.5887C16.1208 10.6949 16.1208 10.7075 16.2401 10.7075H17.227C17.2706 10.7637 17.227 10.82 17.227 10.8767C17.2333 10.9491 17.2333 11.0225 17.227 11.0949V11.8514C17.227 11.9576 17.1959 11.9891 17.1019 11.9891H15.9206C15.8382 11.9734 15.7581 12.026 15.7392 12.1079C15.458 12.8392 15.008 13.4948 14.4266 14.0204C14.2142 14.2117 13.991 14.3917 13.7579 14.5577C13.5077 14.7017 13.2642 14.8516 13.0077 14.9704C12.5357 15.1828 12.0407 15.3394 11.5326 15.4388C11.0502 15.5252 10.561 15.5644 10.0701 15.5576H5.73249V15.5513L5.73429 15.55Z" fill="#202024"/>
</svg>
