<svg width="20" height="20" viewBox="0 0 20 20" fill="none" xmlns="http://www.w3.org/2000/svg">
<path d="M13.3333 14.4434H14.0833C14.0833 14.0291 13.7475 13.6934 13.3333 13.6934V14.4434ZM13.3333 17.4434V18.1934C13.7475 18.1934 14.0833 17.8576 14.0833 17.4434H13.3333ZM2.5 17.4434H1.75C1.75 17.8576 2.08579 18.1934 2.5 18.1934V17.4434ZM2.5 14.4434V13.6934C2.08579 13.6934 1.75 14.0291 1.75 14.4434H2.5ZM3.76613 14.4434V15.1934C4.18035 15.1934 4.51613 14.8576 4.51613 14.4434H3.76613ZM12.0161 14.4434H11.2661C11.2661 14.8576 11.6019 15.1934 12.0161 15.1934V14.4434ZM3.76613 2.44336V1.69336C3.35192 1.69336 3.01613 2.02915 3.01613 2.44336H3.76613ZM12.0161 2.44336H12.7661C12.7661 2.02915 12.4303 1.69336 12.0161 1.69336V2.44336ZM5.64113 5.81836V5.06836C5.22692 5.06836 4.89113 5.40415 4.89113 5.81836H5.64113ZM10.1411 5.81836H10.8911C10.8911 5.40415 10.5553 5.06836 10.1411 5.06836V5.81836ZM10.1411 8.81836V9.56836C10.5553 9.56836 10.8911 9.23257 10.8911 8.81836H10.1411ZM5.64113 8.81836H4.89113C4.89113 9.23257 5.22692 9.56836 5.64113 9.56836V8.81836ZM13.8911 9.56836H14.6411C14.6411 9.15415 14.3053 8.81836 13.8911 8.81836V9.56836ZM13.8911 11.8184H13.1411C13.1411 12.2326 13.4769 12.5684 13.8911 12.5684V11.8184ZM16.1411 11.8184V12.5684C16.5553 12.5684 16.8911 12.2326 16.8911 11.8184H16.1411ZM15.5341 3.40094C15.2345 3.11488 14.7598 3.12583 14.4737 3.4254C14.1877 3.72497 14.1986 4.19972 14.4982 4.48578L15.5341 3.40094ZM12.5833 14.4434V17.4434H14.0833V14.4434H12.5833ZM13.3333 16.6934H2.5V18.1934H13.3333V16.6934ZM3.25 17.4434V14.4434H1.75V17.4434H3.25ZM2.5 15.1934H3.76613V13.6934H2.5V15.1934ZM12.0161 15.1934H13.3333V13.6934H12.0161V15.1934ZM3.76613 3.19336H12.0161V1.69336H3.76613V3.19336ZM11.2661 2.44336V14.4434H12.7661V2.44336H11.2661ZM4.51613 14.4434V2.44336H3.01613V14.4434H4.51613ZM5.64113 6.56836H10.1411V5.06836H5.64113V6.56836ZM9.39113 5.81836V8.81836H10.8911V5.81836H9.39113ZM10.1411 8.06836H5.64113V9.56836H10.1411V8.06836ZM6.39113 8.81836V5.81836H4.89113V8.81836H6.39113ZM12.0161 10.3184H13.8911V8.81836H12.0161V10.3184ZM13.1411 9.56836V11.8184H14.6411V9.56836H13.1411ZM13.8911 12.5684H16.1411V11.0684H13.8911V12.5684ZM16.8911 11.8184V7.31836H15.3911V11.8184H16.8911ZM16.5161 6.56836C16.5161 6.77547 16.3482 6.94336 16.1411 6.94336V8.44336C17.1767 8.44336 18.0161 7.60389 18.0161 6.56836H16.5161ZM16.1411 6.94336C15.934 6.94336 15.7661 6.77547 15.7661 6.56836H14.2661C14.2661 7.60389 15.1056 8.44336 16.1411 8.44336V6.94336ZM15.7661 6.56836C15.7661 6.36125 15.934 6.19336 16.1411 6.19336V4.69336C15.1056 4.69336 14.2661 5.53283 14.2661 6.56836H15.7661ZM16.1411 6.19336C16.3482 6.19336 16.5161 6.36125 16.5161 6.56836H18.0161C18.0161 5.53282 17.1767 4.69336 16.1411 4.69336V6.19336ZM17.4976 5.27594L15.5341 3.40094L14.4982 4.48578L16.4617 6.36078L17.4976 5.27594Z" fill="#A8ACB3"/>
</svg>
