<svg width="32" height="32" viewBox="0 0 32 32" fill="none" xmlns="http://www.w3.org/2000/svg">
<path d="M27.5308 3.56567L17.5371 10.9881L19.3852 6.60899L27.5308 3.56567Z" fill="#E2761B" stroke="#E2761B" stroke-linecap="round" stroke-linejoin="round"/>
<path d="M4.45898 3.56567L14.3723 11.0585L12.6147 6.60899L4.45898 3.56567Z" fill="#E4761B" stroke="#E4761B" stroke-linecap="round" stroke-linejoin="round"/>
<path d="M23.9351 20.771L21.2734 24.8488L26.9683 26.4157L28.6055 20.8614L23.9351 20.771Z" fill="#E4761B" stroke="#E4761B" stroke-linecap="round" stroke-linejoin="round"/>
<path d="M3.4043 20.8614L5.03142 26.4157L10.7263 24.8488L8.06469 20.771L3.4043 20.8614Z" fill="#E4761B" stroke="#E4761B" stroke-linecap="round" stroke-linejoin="round"/>
<path d="M10.4053 13.8808L8.81836 16.2813L14.4731 16.5324L14.2722 10.4558L10.4053 13.8808Z" fill="#E4761B" stroke="#E4761B" stroke-linecap="round" stroke-linejoin="round"/>
<path d="M21.5828 13.8808L17.6657 10.3855L17.5352 16.5324L23.1798 16.2813L21.5828 13.8808Z" fill="#E4761B" stroke="#E4761B" stroke-linecap="round" stroke-linejoin="round"/>
<path d="M10.7266 24.8489L14.1214 23.1916L11.1886 20.9016L10.7266 24.8489Z" fill="#E4761B" stroke="#E4761B" stroke-linecap="round" stroke-linejoin="round"/>
<path d="M17.8672 23.1916L21.2721 24.8489L20.8 20.9016L17.8672 23.1916Z" fill="#E4761B" stroke="#E4761B" stroke-linecap="round" stroke-linejoin="round"/>
<path d="M21.2721 24.8487L17.8672 23.1914L18.1384 25.4111L18.1082 26.3452L21.2721 24.8487Z" fill="#D7C1B3" stroke="#D7C1B3" stroke-linecap="round" stroke-linejoin="round"/>
<path d="M10.7266 24.8487L13.8904 26.3452L13.8703 25.4111L14.1214 23.1914L10.7266 24.8487Z" fill="#D7C1B3" stroke="#D7C1B3" stroke-linecap="round" stroke-linejoin="round"/>
<path d="M13.9418 19.4351L11.1094 18.6015L13.1081 17.6875L13.9418 19.4351Z" fill="#233447" stroke="#233447" stroke-linecap="round" stroke-linejoin="round"/>
<path d="M18.0488 19.4351L18.8825 17.6875L20.8913 18.6015L18.0488 19.4351Z" fill="#233447" stroke="#233447" stroke-linecap="round" stroke-linejoin="round"/>
<path d="M10.7261 24.8488L11.2082 20.771L8.06445 20.8614L10.7261 24.8488Z" fill="#CD6116" stroke="#CD6116" stroke-linecap="round" stroke-linejoin="round"/>
<path d="M20.791 20.771L21.2731 24.8488L23.9348 20.8614L20.791 20.771Z" fill="#CD6116" stroke="#CD6116" stroke-linecap="round" stroke-linejoin="round"/>
<path d="M23.1798 16.2812L17.5352 16.5323L18.0574 19.4351L18.8911 17.6874L20.8999 18.6014L23.1798 16.2812Z" fill="#CD6116" stroke="#CD6116" stroke-linecap="round" stroke-linejoin="round"/>
<path d="M11.1084 18.6014L13.1172 17.6874L13.9408 19.4351L14.4731 16.5323L8.81836 16.2812L11.1084 18.6014Z" fill="#CD6116" stroke="#CD6116" stroke-linecap="round" stroke-linejoin="round"/>
<path d="M8.81836 16.2812L11.1887 20.9015L11.1084 18.6014L8.81836 16.2812Z" fill="#E4751F" stroke="#E4751F" stroke-linecap="round" stroke-linejoin="round"/>
<path d="M20.9012 18.6014L20.8008 20.9015L23.1812 16.2812L20.9012 18.6014Z" fill="#E4751F" stroke="#E4751F" stroke-linecap="round" stroke-linejoin="round"/>
<path d="M14.4737 16.5322L13.9414 19.4349L14.6043 22.8599L14.755 18.3502L14.4737 16.5322Z" fill="#E4751F" stroke="#E4751F" stroke-linecap="round" stroke-linejoin="round"/>
<path d="M17.5368 16.5322L17.2656 18.3401L17.3862 22.8599L18.0591 19.4349L17.5368 16.5322Z" fill="#E4751F" stroke="#E4751F" stroke-linecap="round" stroke-linejoin="round"/>
<path d="M18.0597 19.435L17.3867 22.8599L17.8688 23.1914L20.8017 20.9014L20.9021 18.6013L18.0597 19.435Z" fill="#F6851B" stroke="#F6851B" stroke-linecap="round" stroke-linejoin="round"/>
<path d="M11.1094 18.6013L11.1897 20.9014L14.1225 23.1914L14.6047 22.8599L13.9418 19.435L11.1094 18.6013Z" fill="#F6851B" stroke="#F6851B" stroke-linecap="round" stroke-linejoin="round"/>
<path d="M18.1089 26.3452L18.139 25.4111L17.8879 25.1901H14.1013L13.8703 25.4111L13.8904 26.3452L10.7266 24.8486L11.8314 25.7526L14.0712 27.3094H17.918L20.1679 25.7526L21.2727 24.8486L18.1089 26.3452Z" fill="#C0AD9E" stroke="#C0AD9E" stroke-linecap="round" stroke-linejoin="round"/>
<path d="M17.8686 23.1916L17.3865 22.8601H14.6043L14.1222 23.1916L13.8711 25.4113L14.1021 25.1903H17.8887L18.1398 25.4113L17.8686 23.1916Z" fill="#161616" stroke="#161616" stroke-linecap="round" stroke-linejoin="round"/>
<path d="M27.9513 11.4703L28.805 7.37233L27.5295 3.56567L17.8672 10.737L21.5834 13.8808L26.8364 15.4175L28.0015 14.0616L27.4993 13.7L28.3028 12.9668L27.6801 12.4847L28.4836 11.872L27.9513 11.4703Z" fill="#763D16" stroke="#763D16" stroke-linecap="round" stroke-linejoin="round"/>
<path d="M3.19336 7.37233L4.04709 11.4703L3.50472 11.872L4.30824 12.4847L3.69556 12.9668L4.49907 13.7L3.99687 14.0616L5.15193 15.4175L10.4049 13.8808L14.1212 10.737L4.4589 3.56567L3.19336 7.37233Z" fill="#763D16" stroke="#763D16" stroke-linecap="round" stroke-linejoin="round"/>
<path d="M26.8372 15.4173L21.5842 13.8806L23.1812 16.2811L20.8008 20.9013L23.9345 20.8612H28.6049L26.8372 15.4173Z" fill="#F6851B" stroke="#F6851B" stroke-linecap="round" stroke-linejoin="round"/>
<path d="M10.4049 13.8806L5.15194 15.4173L3.4043 20.8612H8.06469L11.1884 20.9013L8.81798 16.2811L10.4049 13.8806Z" fill="#F6851B" stroke="#F6851B" stroke-linecap="round" stroke-linejoin="round"/>
<path d="M17.5368 16.5323L17.8682 10.7369L19.3949 6.60889H12.6152L14.1218 10.7369L14.4734 16.5323L14.5939 18.3603L14.6039 22.86H17.3861L17.4062 18.3603L17.5368 16.5323Z" fill="#F6851B" stroke="#F6851B" stroke-linecap="round" stroke-linejoin="round"/>
</svg>
