<svg width="28" height="28" viewBox="0 0 28 28" fill="none" xmlns="http://www.w3.org/2000/svg">
<path d="M14 28C21.7584 28 28 21.7584 28 14C28 6.24162 21.7584 0 14 0C6.24162 0 0 6.24162 0 14C0 21.7584 6.24162 28 14 28Z" fill="#2775CA"/>
<path d="M17.85 16.2165C17.85 14.1749 16.625 13.4748 14.175 13.1832C12.425 12.9498 12.0751 12.4832 12.0751 11.6665C12.0751 10.8497 12.6584 10.3248 13.825 10.3248C14.875 10.3248 15.4584 10.6748 15.75 11.5498C15.8084 11.7248 15.9834 11.8415 16.1584 11.8415H17.0916C17.325 11.8415 17.5 11.6665 17.5 11.4332V11.3748C17.2666 10.0915 16.2166 9.09984 14.875 8.98322V7.58322C14.875 7.34984 14.7 7.17484 14.4084 7.11646H13.5334C13.3 7.11646 13.125 7.29146 13.0667 7.58322V8.92484C11.3167 9.15822 10.2084 10.3248 10.2084 11.7832C10.2084 13.7082 11.3751 14.4665 13.825 14.7582C15.4584 15.0499 15.9834 15.3999 15.9834 16.3332C15.9834 17.2666 15.1666 17.9082 14.0584 17.9082C12.5417 17.9082 12.0167 17.2665 11.8417 16.3915C11.7834 16.1582 11.6084 16.0415 11.4334 16.0415H10.4417C10.2084 16.0415 10.0334 16.2165 10.0334 16.4499V16.5082C10.2667 17.9665 11.2001 19.0165 13.125 19.3082V20.7082C13.125 20.9415 13.3 21.1165 13.5917 21.1749H14.4667C14.7 21.1749 14.875 20.9999 14.9334 20.7082V19.3082C16.6834 19.0165 17.85 17.7915 17.85 16.2165Z" fill="white"/>
<path d="M11.0249 22.3417C6.47492 20.7085 4.14154 15.6335 5.8333 11.1417C6.7083 8.69174 8.6333 6.82512 11.0249 5.95012C11.2583 5.8335 11.3749 5.6585 11.3749 5.36674V4.55012C11.3749 4.31674 11.2583 4.14174 11.0249 4.0835C10.9665 4.0835 10.8499 4.0835 10.7915 4.14174C5.24992 5.89174 2.21654 11.7835 3.96654 17.3251C5.01654 20.5917 7.52492 23.1001 10.7915 24.1501C11.0249 24.2667 11.2583 24.1501 11.3165 23.9167C11.3749 23.8585 11.3749 23.8001 11.3749 23.6835V22.8667C11.3749 22.6917 11.1999 22.4585 11.0249 22.3417ZM17.2083 4.14174C16.9749 4.02512 16.7415 4.14174 16.6833 4.37512C16.6249 4.4335 16.6249 4.49174 16.6249 4.6085V5.42512C16.6249 5.6585 16.7999 5.89174 16.9749 6.0085C21.5249 7.64174 23.8583 12.7167 22.1665 17.2085C21.2915 19.6585 19.3665 21.5251 16.9749 22.4001C16.7415 22.5167 16.6249 22.6917 16.6249 22.9835V23.8001C16.6249 24.0335 16.7415 24.2085 16.9749 24.2667C17.0333 24.2667 17.1499 24.2667 17.2083 24.2085C22.7499 22.4585 25.7833 16.5667 24.0333 11.0251C22.9833 7.70012 20.4165 5.19174 17.2083 4.14174Z" fill="white"/>
</svg>
