<svg width="19" height="28" viewBox="0 0 19 28" fill="none" xmlns="http://www.w3.org/2000/svg">
<path d="M0.277344 16.0967L0.955545 15.8061L9.26005 12.1936L18.2428 16.0967L14.8656 23.0725L6.61645 24.2351L0.415752 17.5362L0.277344 16.0967Z" fill="#133444"/>
<path d="M16.3734 11.8063C14.8925 10.0208 12.7886 8.85816 10.4911 8.55366C10.4357 8.55366 10.3942 8.53982 10.3388 8.53982C9.61909 8.45678 8.89937 8.45678 8.17964 8.53982C8.12428 8.53982 8.08276 8.55366 8.02739 8.55366C5.72981 8.85816 3.626 10.0208 2.14503 11.8063L1.77133 12.4291L1.14849 13.4672L0.691744 14.2284C0.691744 14.2561 0.677903 14.2699 0.664062 14.2838V14.2976L1.6606 14.8928L8.02739 18.6575L9.25923 19.3772V10.3807L8.02739 10.9343V9.59173L9.25923 9.03809L10.4911 9.59173L16.7471 12.4291L16.3734 11.8063Z" fill="#C42370"/>
<path d="M18.5189 18.3391C18.505 21.2872 17.1763 24.0693 14.8926 25.9378C14.0206 26.6436 13.0379 27.1973 11.9722 27.5571C11.1002 27.8478 10.1867 28.0001 9.2732 28.0001C4.15209 28.0001 0.0136719 23.4464 0.0136719 18.3391C0.0136719 17.5779 0.110558 16.8305 0.290489 16.0969L9.2732 21.4118L18.2559 16.0969C18.422 16.8305 18.5189 17.5779 18.5189 18.3391Z" fill="#1C4D6B"/>
<path d="M8.17959 8.52607L9.25918 9.02434L8.02734 9.57797V8.4707L8.17959 8.52607Z" fill="black"/>
<path d="M8.02734 10.9344L9.25918 10.3669V19.3635L8.02734 18.6438V10.9344Z" fill="black"/>
<path d="M9.25977 10.3669V19.3635L17.8688 14.2839L9.25977 10.3669Z" fill="#1D4259"/>
<path d="M9.25977 0V10.3668L17.8688 14.2838L9.25977 0Z" fill="#4B6B9A"/>
<path d="M9.25923 10.3667V19.3633L8.02739 18.6435L0.664062 14.2837C0.664062 14.256 0.677903 14.2421 0.691744 14.2283L1.77133 12.4428L8.02739 9.60547V10.9619L9.25923 10.3667Z" fill="#343535"/>
<path d="M9.2594 10.3669V19.3635L8.02756 18.6438L0.664231 14.2839H0.650391L0.664231 14.2701L8.02756 10.9344L9.2594 10.3669Z" fill="#3E5578"/>
<path d="M9.2594 0V10.3668L0.650391 14.2838L9.2594 0Z" fill="#6DB2D8"/>
<path d="M5.77344 27.2664C5.89801 27.3217 6.03641 27.3771 6.16098 27.4324C6.03641 27.3771 5.91185 27.3217 5.77344 27.2664Z" fill="#335F8A"/>
<path d="M6.16016 27.4185C6.28472 27.4738 6.42313 27.5153 6.56154 27.5569C6.42313 27.5153 6.29856 27.4738 6.16016 27.4185Z" fill="#335F8A"/>
<path d="M6.90625 27.668C7.01698 27.6957 7.11386 27.7233 7.21075 27.751L6.90625 27.668Z" fill="#335F8A"/>
<path d="M0.276817 16.0969L9.25953 21.4118C9.13496 22.2146 8.92735 23.0035 8.60901 23.7648C7.88928 25.5087 6.43599 27.3357 3.6263 25.9378C1.34256 24.0693 0.0138408 21.2734 0 18.3253C0 17.5779 0.0968859 16.8305 0.276817 16.0969Z" fill="#6DB2D8"/>
<path d="M14.8657 25.9513C14.8104 25.9929 14.8657 25.9513 14.6858 26.1036L14.6027 26.159L14.4782 26.242L14.3259 26.3527C14.4782 26.242 14.2014 26.4358 14.146 26.4773C14.0906 26.505 14.0491 26.5327 13.9937 26.5742L13.8969 26.6434C13.8692 26.6572 13.8277 26.6849 13.8 26.7126C13.8 26.7126 13.7585 26.7541 13.7446 26.7541C13.8 26.7126 13.6754 26.7818 13.62 26.8233C13.5508 26.851 13.4955 26.8787 13.4401 26.9202L13.2463 27.0171L13.1633 27.0586C13.1079 27.0863 13.1356 27.0586 13.0803 27.1001C13.0249 27.1417 12.9557 27.1555 12.8865 27.197C12.8173 27.2385 12.8865 27.197 12.6512 27.3077C12.8865 27.197 12.6512 27.3077 12.5266 27.3631C12.6512 27.3077 12.3052 27.4462 12.1529 27.5015C12.0976 27.5154 11.7931 27.6122 11.7377 27.6261C11.6823 27.6399 11.6131 27.6676 11.5578 27.6814C11.447 27.7091 11.3501 27.7368 11.2533 27.7645C11.2117 27.7783 11.1702 27.7783 11.1425 27.7922L11.0733 27.806L10.9072 27.8475C10.8519 27.8614 10.8104 27.8614 10.755 27.8752C10.6996 27.8891 10.6581 27.8891 10.6166 27.9029C10.5751 27.9167 10.5059 27.9167 10.4643 27.9306C10.4366 27.9306 10.409 27.9306 10.3951 27.9444L10.2844 27.9583H10.229C10.1875 27.9583 10.146 27.9721 10.1045 27.9721C10.0629 27.9721 9.99374 27.9859 9.93838 27.9859H8.52661C8.47125 27.9859 8.41589 27.9721 8.36052 27.9721C8.319 27.9721 8.27748 27.9721 8.23596 27.9583H8.18059C8.13907 27.9583 8.09755 27.9444 8.06986 27.9444C8.04218 27.9444 8.0145 27.9444 8.00066 27.9306C7.9453 27.9306 7.90377 27.9167 7.84841 27.9029C7.80689 27.9029 7.75153 27.8891 7.71 27.8752C7.66848 27.8614 7.61312 27.8614 7.55775 27.8475L7.39166 27.806L7.32246 27.7922C7.28094 27.7922 7.23941 27.7783 7.21173 27.7645C7.10101 27.7368 7.00412 27.7091 6.90723 27.6814L6.7273 27.6261C6.67194 27.6122 6.61658 27.5984 6.56121 27.5707C6.4228 27.5292 6.29824 27.4738 6.15983 27.4323C6.02142 27.3908 5.89685 27.3216 5.77228 27.2662C5.71692 27.2385 5.64772 27.2109 5.57851 27.1832C5.50931 27.1555 5.4401 27.1278 5.38474 27.0863C5.31554 27.0586 5.26017 27.0309 5.20481 26.9894C5.14945 26.9617 5.08024 26.9202 5.02488 26.8925C4.96952 26.8648 4.92799 26.8372 4.88647 26.8095C4.74806 26.7264 4.66502 26.6711 4.74806 26.7264L4.66502 26.6711L4.51277 26.5742L4.4574 26.5465L4.319 26.4496C4.26363 26.4081 4.20827 26.3804 4.15291 26.3389C4.09754 26.2974 4.02834 26.2558 3.97297 26.2143C3.91761 26.1728 3.86225 26.1174 3.82072 26.0898L3.76536 26.0482C3.71 26.0205 3.66848 25.979 3.62695 25.9375C6.43664 27.3354 7.87609 25.4808 8.59582 23.7506C8.90032 22.9894 9.12177 22.2005 9.24634 21.3977C9.3709 22.2143 9.57852 23.0171 9.89686 23.7783C10.6443 25.4946 12.056 27.3354 14.8657 25.9513Z" fill="#529BBA"/>
<path d="M11.3086 27.751C11.4193 27.7233 11.5162 27.6957 11.6131 27.668L11.3086 27.751Z" fill="#335F8A"/>
<path d="M11.957 27.5569C12.0954 27.5153 12.22 27.4738 12.3584 27.4185C12.22 27.4738 12.0954 27.5153 11.957 27.5569Z" fill="#335F8A"/>
<path d="M12.332 27.4326C12.4566 27.3773 12.6227 27.3219 12.7472 27.2527C12.6088 27.3219 12.4566 27.3773 12.332 27.4326Z" fill="#335F8A"/>
<path d="M18.5193 18.3391C18.5055 21.2872 17.1767 24.0693 14.893 25.9378C12.0833 27.3357 10.63 25.4949 9.91029 23.7648C9.60579 23.0035 9.38433 22.2146 9.25977 21.4118L18.2425 16.0969C18.4224 16.8305 18.5193 17.5779 18.5193 18.3391Z" fill="#4B6B9A"/>
</svg>
