<svg width="16" height="16" viewBox="0 0 16 16" fill="none" xmlns="http://www.w3.org/2000/svg">
<path d="M8 0C12.4187 0 16 3.58204 16 8C16 12.4187 12.4187 16 8 16C3.58204 16 0 12.4183 0 8C0 3.58204 3.58204 0 8 0Z" fill="#F5AC37"/>
<path d="M8.29219 8.56491H11.3321C11.3969 8.56491 11.4275 8.56491 11.4321 8.47995C11.457 8.17071 11.457 7.85966 11.4321 7.55006C11.4321 7.48994 11.4023 7.4651 11.3371 7.4651H5.28724C5.21236 7.4651 5.1922 7.48994 5.1922 7.56014V8.45007C5.1922 8.56491 5.1922 8.56491 5.31208 8.56491H8.29219ZM11.0927 6.42505C11.1013 6.40237 11.1013 6.37753 11.0927 6.35521C11.0419 6.24469 10.9818 6.13921 10.9119 6.04021C10.8068 5.871 10.683 5.71512 10.5419 5.57508C10.4753 5.49048 10.3982 5.41452 10.3118 5.35008C9.87909 4.9818 9.36464 4.72115 8.81168 4.59011C8.53268 4.52747 8.24755 4.49759 7.96171 4.50011H5.2768C5.20192 4.50011 5.19184 4.52999 5.19184 4.59515V6.36997C5.19184 6.44485 5.19184 6.46501 5.28688 6.46501H11.0567C11.0567 6.46501 11.1067 6.45493 11.1168 6.42505H11.0923H11.0927ZM11.0927 9.60496C11.0077 9.5956 10.922 9.5956 10.8371 9.60496H5.29228C5.2174 9.60496 5.1922 9.60496 5.1922 9.70504V11.4403C5.1922 11.5202 5.1922 11.5403 5.29228 11.5403H7.85227C7.97467 11.5497 8.09707 11.5411 8.21695 11.5155C8.58848 11.4889 8.95388 11.4082 9.30236 11.2754C9.42908 11.2315 9.55149 11.1742 9.66705 11.1055H9.70197C10.3021 10.7933 10.7895 10.303 11.097 9.70108C11.097 9.70108 11.1319 9.62548 11.0927 9.60568V9.60496ZM4.18743 12.44V12.4101V11.2451V10.8502V9.67516C4.18743 9.61 4.18743 9.60028 4.10751 9.60028H3.02246C2.96234 9.60028 2.9375 9.60028 2.9375 9.52036V8.57031H4.09743C4.16223 8.57031 4.18743 8.57031 4.18743 8.48535V7.54538C4.18743 7.48526 4.18743 7.4705 4.10751 7.4705H3.02246C2.96234 7.4705 2.9375 7.4705 2.9375 7.39058V6.51073C2.9375 6.45565 2.9375 6.44089 3.01742 6.44089H4.09239C4.16727 6.44089 4.18743 6.44089 4.18743 6.34585V3.65086C4.18743 3.57094 4.18743 3.55078 4.28751 3.55078H8.03731C8.30947 3.56158 8.57984 3.59146 8.84732 3.64078C9.39848 3.74266 9.92805 3.93959 10.4123 4.22075C10.7334 4.40975 11.0289 4.63799 11.2921 4.9008C11.4901 5.10636 11.6687 5.32884 11.8271 5.56572C11.9844 5.80584 12.1151 6.06253 12.2177 6.33073C12.2303 6.40057 12.2972 6.44773 12.3671 6.43585H13.262C13.3769 6.43585 13.3769 6.43585 13.3819 6.54601V7.3661C13.3819 7.44602 13.352 7.46618 13.2718 7.46618H12.5816C12.5118 7.46618 12.4916 7.46618 12.4967 7.55618C12.524 7.86074 12.524 8.16639 12.4967 8.47095C12.4967 8.55591 12.4967 8.56599 12.5921 8.56599H13.3816C13.4165 8.61099 13.3816 8.65599 13.3816 8.70135C13.3866 8.75931 13.3866 8.818 13.3816 8.87596V9.48112C13.3816 9.56608 13.3567 9.59128 13.2815 9.59128H12.3365C12.2706 9.57868 12.2065 9.6208 12.1914 9.68632C11.9664 10.2713 11.6064 10.7959 11.1413 11.2163C10.9713 11.3693 10.7928 11.5133 10.6063 11.6462C10.4061 11.7614 10.2114 11.8813 10.0062 11.9763C9.62853 12.1462 9.23252 12.2715 8.82608 12.3511C8.44015 12.4202 8.04883 12.4515 7.65607 12.4461H4.18599V12.4411L4.18743 12.44Z" fill="#FEFEFD"/>
</svg>
