<svg width="33" height="28" viewBox="0 0 33 28" fill="none" xmlns="http://www.w3.org/2000/svg">
<g clip-path="url(#clip0)">
<path fill-rule="evenodd" clip-rule="evenodd" d="M5.8938 0.13752L0.0248609 12.4652C0.00252794 12.5111 -0.00454924 12.5629 0.00466435 12.613C0.0138779 12.6632 0.038899 12.7091 0.0760683 12.744L15.9266 27.9327C15.9717 27.9759 16.0316 28 16.094 28C16.1564 28 16.2164 27.9759 16.2614 27.9327L32.112 12.745C32.1491 12.71 32.1742 12.6641 32.1834 12.614C32.1926 12.5638 32.1855 12.512 32.1632 12.4662L26.2942 0.138468C26.2753 0.0970663 26.2448 0.0619938 26.2065 0.0374422C26.1682 0.0128907 26.1236 -0.00010156 26.078 1.83516e-05H6.1119C6.06615 -0.000550773 6.02122 0.0121285 5.98252 0.0365266C5.94382 0.0609247 5.91301 0.0959994 5.8938 0.13752Z" fill="#50AF95"/>
<path fill-rule="evenodd" clip-rule="evenodd" d="M18.1304 13.7312C18.0166 13.7397 17.4287 13.7748 16.1172 13.7748C15.0741 13.7748 14.3335 13.7435 14.0736 13.7312C10.0425 13.5538 7.03356 12.8521 7.03356 12.0119C7.03356 11.1717 10.0425 10.4709 14.0736 10.2908V13.0323C14.3372 13.0512 15.0921 13.0958 16.1352 13.0958C17.3869 13.0958 18.0137 13.0436 18.1266 13.0332V10.2927C22.1492 10.4719 25.1515 11.1736 25.1515 12.0119C25.1515 12.8502 22.1502 13.5519 18.1266 13.7302L18.1304 13.7312ZM18.1304 10.0091V7.55592H23.7442V3.81494H8.45978V7.55592H14.0727V10.0082C9.51048 10.2178 6.07959 11.1215 6.07959 12.2044C6.07959 13.2874 9.51048 14.1901 14.0727 14.4006V22.2619H18.1294V14.3978C22.6812 14.1882 26.1064 13.2855 26.1064 12.2035C26.1064 11.1215 22.684 10.2187 18.1294 10.0082L18.1304 10.0091Z" fill="white"/>
</g>
<defs>
<clipPath id="clip0">
<rect width="32.1876" height="28" fill="white"/>
</clipPath>
</defs>
</svg>
