<svg width="28" height="28" viewBox="0 0 28 28" fill="none" xmlns="http://www.w3.org/2000/svg">
<path d="M22.8311 5.87622L22.0623 6.64502C23.8968 8.65118 24.9141 11.2712 24.9141 13.9897C24.9141 16.7082 23.8968 19.3282 22.0623 21.3344L22.8311 22.1032C24.8712 19.8903 26.0039 16.9906 26.0039 13.9807C26.0039 10.9709 24.8712 8.07121 22.8311 5.85828V5.87622Z" fill="#F09242"/>
<path d="M6.66297 5.94287C8.66913 4.10837 11.2892 3.09104 14.0076 3.09104C16.7261 3.09104 19.3462 4.10837 21.3523 5.94287L22.1211 5.17406C19.9082 3.1339 17.0086 2.00122 13.9987 2.00122C10.9888 2.00122 8.08916 3.1339 5.87622 5.17406L6.66297 5.94287Z" fill="#F09242"/>
<path d="M5.94287 21.3421C4.11054 19.3364 3.09455 16.7179 3.09455 14.0012C3.09455 11.2846 4.11054 8.66612 5.94287 6.66041L5.17406 5.8916C3.1339 8.10454 2.00122 11.0042 2.00122 14.0141C2.00122 17.0239 3.1339 19.9236 5.17406 22.1365L5.94287 21.3421Z" fill="#F09242"/>
<path d="M21.3422 22.052C19.336 23.8865 16.716 24.9038 13.9975 24.9038C11.2791 24.9038 8.659 23.8865 6.65284 22.052L5.88403 22.8208C8.09697 24.861 10.9966 25.9936 14.0065 25.9936C17.0164 25.9936 19.916 24.861 22.129 22.8208L21.3422 22.052Z" fill="#F09242"/>
<path d="M18.8537 11.4348C18.6999 9.83053 17.3161 9.29237 15.5658 9.12835V6.91931H14.2127V9.08735C13.8564 9.08735 13.4925 9.08735 13.1312 9.08735V6.91931H11.7883V9.14373H9.0437V10.5917C9.0437 10.5917 10.0432 10.5737 10.0278 10.5917C10.208 10.5718 10.3889 10.6227 10.5323 10.7336C10.6757 10.8445 10.7704 11.0068 10.7966 11.1862V17.2752C10.7927 17.3384 10.7762 17.4003 10.7481 17.4571C10.7199 17.5138 10.6806 17.5644 10.6326 17.6057C10.5854 17.6479 10.5302 17.68 10.4704 17.7003C10.4105 17.7206 10.3471 17.7285 10.284 17.7236C10.302 17.739 9.29997 17.7236 9.29997 17.7236L9.0437 19.3407H11.7627V21.601H13.1158V19.374H14.1973V21.5907H15.5529V19.3561C17.8389 19.2177 19.4329 18.6539 19.6328 16.514C19.7942 14.7919 18.9844 14.0231 17.6902 13.713C18.477 13.326 18.9639 12.6085 18.8537 11.4348ZM16.9573 16.2475C16.9573 17.9286 14.0768 17.7364 13.1594 17.7364V14.7535C14.0768 14.756 16.9573 14.4921 16.9573 16.2475ZM16.3294 12.0447C16.3294 13.5823 13.9256 13.3952 13.162 13.3952V10.6839C13.9256 10.6839 16.3294 10.443 16.3294 12.0447Z" fill="#F09242"/>
<path d="M13.9974 28C11.2287 27.9995 8.52232 27.178 6.22042 25.6395C3.91853 24.101 2.12451 21.9145 1.0652 19.3564C0.00589328 16.7983 -0.271137 13.9836 0.269137 11.2681C0.809412 8.55262 2.14273 6.05829 4.10051 4.10051C6.05829 2.14273 8.55262 0.809412 11.2681 0.269137C13.9836 -0.271137 16.7983 0.00589328 19.3564 1.0652C21.9145 2.12451 24.101 3.91853 25.6395 6.22042C27.178 8.52232 27.9995 11.2287 28 13.9974C28.0003 15.8364 27.6384 17.6574 26.9348 19.3564C26.2312 21.0554 25.1998 22.5992 23.8995 23.8995C22.5992 25.1998 21.0554 26.2312 19.3564 26.9348C17.6574 27.6384 15.8364 28.0003 13.9974 28ZM13.9974 1.09171C11.4466 1.09374 8.95361 1.85194 6.83358 3.27048C4.71355 4.68903 3.06164 6.70423 2.08664 9.06139C1.11165 11.4185 0.857334 14.0118 1.35585 16.5135C1.85436 19.0152 3.08332 21.3129 4.8874 23.1162C6.69148 24.9196 8.98968 26.1476 11.4915 26.6452C13.9934 27.1427 16.5866 26.8873 18.9434 25.9114C21.3001 24.9355 23.3147 23.2828 24.7324 21.1622C26.1501 19.0416 26.9073 16.5483 26.9083 13.9974C26.909 12.302 26.5754 10.6231 25.9268 9.05665C25.2781 7.49022 24.3271 6.06701 23.128 4.8684C21.9289 3.66979 20.5053 2.71929 18.9386 2.07126C17.3719 1.42323 15.6929 1.09037 13.9974 1.09171Z" fill="#F09242"/>
</svg>
